
<svg width="49px" height="32px" viewBox="0 0 49 32" version="1.1" xmlns="http://www.w3.org/2000/svg" xmlns:xlink="http://www.w3.org/1999/xlink">
    <!-- Generator: Sketch 40.2 (33826) - http://www.bohemiancoding.com/sketch -->
    <desc>Created with Sketch.</desc>
    <defs></defs>
    <g id="Participants" stroke="none" stroke-width="1" fill="none" fill-rule="evenodd">
        <g id="Group-2" transform="translate(15.000000, 3.000000)" fill="#F4F4F4">
            <circle id="Oval" cx="9.5" cy="7.5" r="7.5"></circle>
            <path d="M9.49520138,29 C25.650052,29 16.5241667,18.7109811 16.5241667,18.7109811 C16.5241667,18.7109811 13.637337,14 9.49520138,14 C5.35306575,14 2.69256969,18.1385649 2.69256969,18.1385649 C2.69256969,18.1385649 -6.65964929,29 9.49520138,29 Z" id="Oval-Copy"></path>
        </g>
        <g id="Group-2-Copy-2" fill="#F4F4F4">
            <ellipse id="Oval" cx="7.6" cy="5.94827586" rx="6" ry="5.94827586"></ellipse>
            <path d="M7.5961611,23 C20.5200416,23 13.2193333,14.8397436 13.2193333,14.8397436 C13.2193333,14.8397436 10.9098696,11.1034483 7.5961611,11.1034483 C4.2824526,11.1034483 2.15405575,14.3857584 2.15405575,14.3857584 C2.15405575,14.3857584 -5.32771943,23 7.5961611,23 Z" id="Oval-Copy"></path>
        </g>
        <g id="Group-2-Copy-3" transform="translate(33.000000, 0.000000)" fill="#F4F4F4">
            <ellipse id="Oval" cx="7.6" cy="5.94827586" rx="6" ry="5.94827586"></ellipse>
            <path d="M7.5961611,23 C20.5200416,23 13.2193333,14.8397436 13.2193333,14.8397436 C13.2193333,14.8397436 10.9098696,11.1034483 7.5961611,11.1034483 C4.2824526,11.1034483 2.15405575,14.3857584 2.15405575,14.3857584 C2.15405575,14.3857584 -5.32771943,23 7.5961611,23 Z" id="Oval-Copy"></path>
        </g>
    </g>
</svg>